<svg xmlns="http://www.w3.org/2000/svg" width="64" height="64" fill="none" viewBox="0 0 64 64">
  <rect width="64" height="64" rx="20" fill="url(#a)"/>
  <path fill="url(#b)" d="M10 8h44a10 10 0 0 1 10 10v8c-7.8-3.7-20.2-5.8-32-3.5C22 24.4 14.7 29.7 10 36V8Z" opacity=".42"/>
  <path stroke="#F8FBFF" stroke-linecap="round" stroke-linejoin="round" stroke-width="3.4" d="M32 16v24M32 24l-10-7M32 24l10-7M32 32l-10 10M32 32l10 10"/>
  <circle cx="32" cy="14" r="4.2" fill="#F8FBFF"/>
  <circle cx="32" cy="42" r="4.2" fill="#F8FBFF"/>
  <circle cx="19.5" cy="17.5" r="3.8" fill="#F8FBFF"/>
  <circle cx="44.5" cy="17.5" r="3.8" fill="#F8FBFF"/>
  <circle cx="19.5" cy="52" r="3.8" fill="#F8FBFF"/>
  <circle cx="44.5" cy="52" r="3.8" fill="#F8FBFF"/>
  <defs>
    <linearGradient id="a" x1="8" x2="56" y1="10" y2="58" gradientUnits="userSpaceOnUse">
      <stop stop-color="#083A9B"/>
      <stop offset=".5" stop-color="#0F63EC"/>
      <stop offset="1" stop-color="#57D3FF"/>
    </linearGradient>
    <linearGradient id="b" x1="8" x2="55" y1="8" y2="40" gradientUnits="userSpaceOnUse">
      <stop stop-color="#fff" stop-opacity=".55"/>
      <stop offset="1" stop-color="#fff" stop-opacity="0"/>
    </linearGradient>
  </defs>
</svg>
